<?xml version="1.0" encoding="UTF-8" standalone="no"?>
<svg
   xmlns:svg="http://www.w3.org/2000/svg"
   xmlns="http://www.w3.org/2000/svg"
   xmlns:xlink="http://www.w3.org/1999/xlink"
   width="60px"
   height="60px"
   viewBox="0 0 60 60">
  <!-- Generator: Sketch 42 (36781) - http://www.bohemiancoding.com/sketch -->
  <title>nt-elements/el-selfnet</title>
  <desc>Created with Sketch.</desc>
  <circle class="frame" cx="30" cy="30" r="26" stroke="#55a4d3" stroke-width="2" fill="#FFFFFF" ></circle>
  <g transform="translate(15.000000, 15.000000)" fill="#55a4d3">
    <g>
      <path class="icon-drawing" d="M12.6528925,6.49180328e-05 C12.0971941,6.49180328e-05 11.6204793,0.325520656 11.3817974,0.796392787 C4.87311541,2.22653705 -6.49180328e-05,8.02155344 -6.49180328e-05,14.9602092 C-6.49180328e-05,22.3156387 5.47533836,28.3885043 12.5719613,29.3358748 L12.5719613,27.4244715 C6.5103482,26.4922485 1.86935803,21.2550944 1.86935803,14.93316 C1.86935803,8.89794689 6.09984984,3.85424852 11.75724,2.5976518 C12.0032793,2.79954689 12.3122892,2.92570426 12.6528925,2.92570426 C13.445758,2.92570426 14.0888793,2.2708977 14.0888793,1.46288459 C14.0888793,0.655087869 13.445758,6.49180328e-05 12.6528925,6.49180328e-05" />
      <path class="icon-drawing" d="M29.017322,14.9601443 C29.017322,7.59540984 23.5280695,1.51648525 16.4182466,0.5808 L16.4182466,2.43745574 C22.4930597,3.35820984 27.1476826,8.60163934 27.1476826,14.9330951 C27.1476826,20.9529443 22.9388302,25.9860393 17.3039449,27.2582164 C17.0592039,27.0615148 16.754522,26.9390361 16.4182466,26.9390361 C15.6255974,26.9390361 14.9826925,27.594059 14.9826925,28.4016393 C14.9826925,29.2100852 15.6255974,29.8646754 16.4182466,29.8646754 C16.9544695,29.8646754 17.4160367,29.5621574 17.6627252,29.1187672 C24.1582072,27.6784525 29.017322,21.8892787 29.017322,14.9601443" />
      <path class="icon-drawing" d="M14.5219259,5.01175869 C9.96987344,5.01175869 6.14447016,8.10618492 5.02420131,12.3050833 C4.65135541,12.5692997 4.40596525,13.0077128 4.40596525,13.5054177 C4.40596525,14.3136472 5.04908656,14.9684538 5.84216852,14.9684538 C6.6350341,14.9684538 7.27750623,14.3136472 7.27750623,13.5054177 C7.27750623,13.1526964 7.15005049,12.8335161 6.94555869,12.5809849 C7.94767672,9.34503738 10.9570603,6.99240787 14.5219259,6.99240787 C18.2319915,6.99240787 21.3456767,9.53697836 22.2164439,12.975903 L24.1756702,12.975903 C23.3025226,8.43921443 19.3137423,5.01175869 14.5219259,5.01175869"/>
      <path class="icon-drawing" d="M24.6621875,16.356358 C24.6621875,15.5487777 24.019499,14.8941875 23.2266334,14.8941875 C22.4337679,14.8941875 21.7904302,15.5487777 21.7904302,16.356358 C21.7904302,16.6986925 21.9107449,17.0096498 22.104417,17.2587187 C21.1085744,20.5039711 18.0939974,22.8669875 14.5219908,22.8669875 C10.7714597,22.8669875 7.63094164,20.2648564 6.80107279,16.7685875 L4.87798426,16.7685875 C5.77233836,21.2782269 9.74943344,24.6786334 14.5219908,24.6786334 C18.9935449,24.6786334 22.7670138,21.6930531 23.9608564,17.6075449 C24.3793613,17.3522007 24.6621875,16.8902007 24.6621875,16.356358"/>
    </g>
  </g>
</svg>
