<?xml version="1.0" encoding="UTF-8" standalone="no"?>
<svg
   xmlns:dc="http://purl.org/dc/elements/1.1/"
   xmlns:cc="http://creativecommons.org/ns#"
   xmlns:rdf="http://www.w3.org/1999/02/22-rdf-syntax-ns#"
   xmlns:svg="http://www.w3.org/2000/svg"
   xmlns="http://www.w3.org/2000/svg"
   xmlns:sodipodi="http://sodipodi.sourceforge.net/DTD/sodipodi-0.dtd"
   xmlns:inkscape="http://www.inkscape.org/namespaces/inkscape"
   width="60px"
   height="60px"
   viewBox="0 0 60 60"
   version="1.1"
   id="svg2"
   inkscape:version="0.91 r13725"
   sodipodi:docname="nt-el-server_INV.svg">
  <metadata
     id="metadata20">
    <rdf:RDF>
      <cc:Work
         rdf:about="">
        <dc:format>image/svg+xml</dc:format>
        <dc:type
           rdf:resource="http://purl.org/dc/dcmitype/StillImage" />
        <dc:title>el-server</dc:title>
      </cc:Work>
    </rdf:RDF>
  </metadata>
  <defs
     id="defs18" />
  <sodipodi:namedview
     pagecolor="#ffffff"
     bordercolor="#666666"
     borderopacity="1"
     objecttolerance="10"
     gridtolerance="10"
     guidetolerance="10"
     inkscape:pageopacity="0"
     inkscape:pageshadow="2"
     inkscape:window-width="1920"
     inkscape:window-height="1023"
     id="namedview16"
     showgrid="false"
     inkscape:zoom="7.8666667"
     inkscape:cx="13.751156"
     inkscape:cy="20.100246"
     inkscape:window-x="0"
     inkscape:window-y="24"
     inkscape:window-maximized="1"
     inkscape:current-layer="svg2" />
  <!-- Generator: Sketch 41.2 (35397) - http://www.bohemiancoding.com/sketch -->
  <title
     id="title4">el-server</title>
  <desc
     id="desc6">Created with Sketch.</desc>
  <circle
     class="frame"
     cx="30"
     cy="30"
     r="26"
     stroke="#55a4d3"
     stroke-width="2"
     fill="#FFFFFF"
     id="circle8"
     style="stroke:#ffffff;stroke-opacity:1;fill:none" />
  <g
     transform="translate(14.000000, 14.000000)"
     fill="#55a4d3"
     id="g10"
     style="fill:none">
    <path
       class="icon-drawing"
       d="M31.0066,30.0046 C31.0066,30.5576 30.5576,31.0066 30.0046,31.0066 L1.9996,31.0066 C1.4476,31.0066 1.0016,30.5576 1.0016,30.0046 L1.0016,24.0026 C1.0016,23.4536 1.4476,23.0046 1.9996,23.0046 L30.0046,23.0046 C30.5576,23.0046 31.0066,23.4536 31.0066,24.0026 L31.0066,30.0046 Z M30.0046,22.0026 L1.9996,22.0026 C0.8966,22.0026 -0.0004,22.8996 -0.0004,24.0026 L-0.0004,30.0046 C-0.0004,31.1086 0.8966,32.0046 1.9996,32.0046 L30.0046,32.0046 C31.1096,32.0046 32.0046,31.1086 32.0046,30.0046 L32.0046,24.0026 C32.0046,22.8996 31.1096,22.0026 30.0046,22.0026 L30.0046,22.0026 Z M26.5026,25.5046 C25.6756,25.5046 25.0046,26.1766 25.0046,27.0036 C25.0046,27.8316 25.6756,28.5036 26.5026,28.5036 C27.3316,28.5036 28.0026,27.8316 28.0026,27.0036 C28.0026,26.1766 27.3316,25.5046 26.5026,25.5046 L26.5026,25.5046 Z M14.0006,26.5106 L3.9996,26.5106 C3.7296,26.5106 3.5066,26.7336 3.5066,27.0036 C3.5066,27.2776 3.7296,27.4966 3.9996,27.4966 L14.0006,27.4966 C14.2756,27.4966 14.4946,27.2776 14.4946,27.0036 C14.4946,26.7336 14.2756,26.5106 14.0006,26.5106 L14.0006,26.5106 Z M31.0066,19.0016 C31.0066,19.5536 30.5576,20.0036 30.0046,20.0036 L1.9996,20.0036 C1.4476,20.0036 1.0016,19.5536 1.0016,19.0016 L1.0016,13.0026 C1.0016,12.4506 1.4476,12.0016 1.9996,12.0016 L30.0046,12.0016 C30.5576,12.0016 31.0066,12.4506 31.0066,13.0026 L31.0066,19.0016 Z M30.0046,11.0026 L1.9996,11.0026 C0.8966,11.0026 -0.0004,11.8966 -0.0004,13.0026 L-0.0004,19.0016 C-0.0004,20.1086 0.8966,21.0046 1.9996,21.0046 L30.0046,21.0046 C31.1096,21.0046 32.0046,20.1086 32.0046,19.0016 L32.0046,13.0026 C32.0046,11.8966 31.1096,11.0026 30.0046,11.0026 L30.0046,11.0026 Z M26.5026,14.5016 C25.6756,14.5016 25.0046,15.1736 25.0046,16.0016 C25.0046,16.8316 25.6756,17.5026 26.5026,17.5026 C27.3316,17.5026 28.0026,16.8316 28.0026,16.0016 C28.0026,15.1736 27.3316,14.5016 26.5026,14.5016 L26.5026,14.5016 Z M14.0006,15.5106 L3.9996,15.5106 C3.7296,15.5106 3.5066,15.7306 3.5066,16.0036 C3.5066,16.2746 3.7296,16.4966 3.9996,16.4966 L14.0006,16.4966 C14.2756,16.4966 14.4946,16.2746 14.4946,16.0036 C14.4946,15.7306 14.2756,15.5106 14.0006,15.5106 L14.0006,15.5106 Z M31.0066,8.0016 C31.0066,8.5536 30.5576,9.0006 30.0046,9.0006 L1.9996,9.0006 C1.4476,9.0006 1.0016,8.5536 1.0016,8.0016 L1.0016,1.9996 C1.0016,1.4476 1.4476,1.0016 1.9996,1.0016 L30.0046,1.0016 C30.5576,1.0016 31.0066,1.4476 31.0066,1.9996 L31.0066,8.0016 Z M30.0046,-0.0004 L1.9996,-0.0004 C0.8966,-0.0004 -0.0004,0.8966 -0.0004,1.9996 L-0.0004,8.0016 C-0.0004,9.1056 0.8966,10.0016 1.9996,10.0016 L30.0046,10.0016 C31.1096,10.0016 32.0046,9.1056 32.0046,8.0016 L32.0046,1.9996 C32.0046,0.8966 31.1096,-0.0004 30.0046,-0.0004 L30.0046,-0.0004 Z M26.5026,3.5016 C25.6756,3.5016 25.0046,4.1736 25.0046,5.0006 C25.0046,5.8286 25.6756,6.4996 26.5026,6.4996 C27.3316,6.4996 28.0026,5.8286 28.0026,5.0006 C28.0026,4.1736 27.3316,3.5016 26.5026,3.5016 L26.5026,3.5016 Z M14.0006,4.5076 L3.9996,4.5076 C3.7296,4.5076 3.5066,4.7276 3.5066,5.0006 C3.5066,5.2746 3.7296,5.4936 3.9996,5.4936 L14.0006,5.4936 C14.2756,5.4936 14.4946,5.2746 14.4946,5.0006 C14.4946,4.7276 14.2756,4.5076 14.0006,4.5076 L14.0006,4.5076 Z"
       id="path12"
       style="stroke:#ffffff;stroke-opacity:1;fill:none;fill-opacity:1" />
  </g>
  <circle
     class="state"
     cx="17"
     cy="15"
     r="4"
     fill="#818181"
     fill-rule="evenodd"
     stroke="#FFFFFF"
     stroke-width="2"
     id="circle14" />
</svg>
