<?xml version="1.0" encoding="UTF-8" standalone="no"?>
<svg
   xmlns:dc="http://purl.org/dc/elements/1.1/"
   xmlns:cc="http://creativecommons.org/ns#"
   xmlns:rdf="http://www.w3.org/1999/02/22-rdf-syntax-ns#"
   xmlns:svg="http://www.w3.org/2000/svg"
   xmlns="http://www.w3.org/2000/svg"
   id="svg2"
   version="1.1"
   viewBox="0 0 60 60"
   height="60px"
   width="60px">
  <metadata
     id="metadata22">
    <rdf:RDF>
      <cc:Work
         rdf:about="">
        <dc:format>image/svg+xml</dc:format>
        <dc:type
           rdf:resource="http://purl.org/dc/dcmitype/StillImage" />
        <dc:title>el-vm</dc:title>
      </cc:Work>
    </rdf:RDF>
  </metadata>
  <defs
     id="defs20" />
  <!-- Generator: Sketch 41.2 (35397) - http://www.bohemiancoding.com/sketch -->
  <title
     id="title4">el-vm</title>
  <desc
     id="desc6">Created with Sketch.</desc>
  <circle
     style="fill:none;fill-opacity:1;stroke:#ffffff;stroke-opacity:1"
     id="circle8"
     fill="#FFFFFF"
     stroke-width="2"
     stroke="#55a4d3"
     r="26"
     cy="30"
     cx="30"
     class="frame" />
  <g
     style="stroke:#acffff;stroke-opacity:1"
     id="g10"
     transform="translate(12.000000, 13.000000)">
    <path
       id="path12"
       transform="translate(-12,-13)"
       d="M 14.402344 23.498047 C 13.077344 23.498047 12 24.557375 12 25.859375 L 12 42.216797 C 12 43.518797 13.077344 44.576172 14.402344 44.576172 L 23.435547 44.576172 L 23.197266 46.794922 C 23.178266 46.973922 23.236375 47.155109 23.359375 47.287109 C 23.481375 47.422109 23.656844 47.498047 23.839844 47.498047 L 30.677734 47.498047 C 30.860734 47.498047 31.03425 47.422109 31.15625 47.287109 C 31.27925 47.155109 31.340312 46.973922 31.320312 46.794922 L 31.082031 44.576172 L 39.597656 44.576172 C 40.922656 44.576172 42 43.518797 42 42.216797 L 42 30.998047 L 40.707031 30.998047 L 40.707031 40.259766 L 13.292969 40.259766 L 13.292969 25.859375 C 13.292969 25.257375 13.790344 24.767578 14.402344 24.767578 L 24.603516 24.767578 C 24.686387 24.326662 24.821915 23.902122 25.015625 23.498047 L 14.402344 23.498047 z M 13.292969 41.529297 L 40.707031 41.529297 L 40.707031 42.216797 C 40.707031 42.818797 40.209656 43.306641 39.597656 43.306641 L 14.402344 43.306641 C 13.790344 43.306641 13.292969 42.818797 13.292969 42.216797 L 13.292969 41.529297 z M 24.736328 44.576172 L 29.779297 44.576172 L 29.958984 46.228516 L 24.558594 46.228516 L 24.736328 44.576172 z "
       style="stroke:#ffffff;stroke-opacity:1;fill:#ffffff;fill-opacity:1" />
    <path
       fill="#FFFFFF"
       stroke="#55a4d3"
       stroke-width="1"
       style="opacity:1;stroke:#ffffff;stroke-opacity:1;color:#000000;clip-rule:nonzero;display:inline;overflow:visible;visibility:visible;isolation:auto;mix-blend-mode:normal;color-interpolation:sRGB;color-interpolation-filters:linearRGB;solid-color:#000000;solid-opacity:1;fill:none;fill-opacity:1;fill-rule:nonzero;stroke-width:1;stroke-linecap:butt;stroke-linejoin:miter;stroke-miterlimit:4;stroke-dasharray:none;stroke-dashoffset:0;filter-blend-mode:normal;filter-gaussianBlur-deviation:0;color-rendering:auto;image-rendering:auto;shape-rendering:auto;text-rendering:auto;enable-background:accumulate"
       id="path14"
       d="M17.5993,17.9978 C16.1843,17.9978 15.0073,17.4978 14.0013,16.4678 C12.9913,15.4348 12.5003,14.2258 12.5003,12.7708 C12.5003,11.7478 12.7723,10.7998 13.3093,9.9518 C13.8483,9.1038 14.5643,8.4618 15.4393,8.0458 L15.7473,7.8988 L15.7233,7.5588 C15.7073,7.3358 15.7003,7.1648 15.7003,7.0448 C15.7003,5.3578 16.2663,3.9588 17.4323,2.7668 C18.5953,1.5778 19.9583,0.9998 21.5993,0.9998 C22.8043,0.9998 23.9123,1.3488 24.8923,2.0348 C25.8783,2.7248 26.6073,3.6398 27.0593,4.7528 L27.3283,5.4148 L27.8583,4.9348 C28.3503,4.4888 28.9203,4.2718 29.5983,4.2718 C30.3473,4.2718 30.9703,4.5368 31.5023,5.0808 C32.0373,5.6278 32.2973,6.2698 32.2973,7.0448 C32.2973,7.5918 32.1543,8.0808 31.8623,8.5398 L31.4853,9.1328 L32.1693,9.2948 C33.1393,9.5258 33.9193,10.0298 34.5533,10.8368 C35.1873,11.6438 35.4963,12.5438 35.4963,13.5888 C35.4963,14.8198 35.0833,15.8408 34.2323,16.7098 C33.3853,17.5768 32.3923,17.9978 31.1973,17.9978 L17.5993,17.9978 Z"
       class="icon-drawing2" />
  </g>
  <circle
     id="circle16"
     stroke-width="2"
     stroke="#FFFFFF"
     fill-rule="evenodd"
     fill="#818181"
     r="4"
     cy="15"
     cx="17"
     class="state" />
</svg>
