<?xml version="1.0" encoding="UTF-8" standalone="no"?>
<svg width="60px" height="60px" viewBox="0 0 60 60" version="1.1" xmlns="http://www.w3.org/2000/svg" xmlns:xlink="http://www.w3.org/1999/xlink">
    <!-- Generator: Sketch 41.2 (35397) - http://www.bohemiancoding.com/sketch -->
    <title>el-vm</title>
    <desc>Created with Sketch.</desc>
    <circle class="frame" cx="30" cy="30" r="26" stroke="#55a4d3" stroke-width="2" fill="#FFFFFF"></circle>
    <g transform="translate(12.000000, 13.000000)">
        <path class="icon-drawing" d="M28.7072,27.2595 L1.2932,27.2595 L1.2932,12.8585 C1.2932,12.2565 1.7912,11.7675 2.4032,11.7675 L27.5972,11.7675 C28.2092,11.7675 28.7072,12.2565 28.7072,12.8585 L28.7072,27.2595 Z M28.7072,29.2165 C28.7072,29.8185 28.2092,30.3075 27.5972,30.3075 L2.4032,30.3075 C1.7912,30.3075 1.2932,29.8185 1.2932,29.2165 L1.2932,28.5295 L28.7072,28.5295 L28.7072,29.2165 Z M12.5592,33.2285 L12.7362,31.5765 L17.7802,31.5765 L17.9582,33.2285 L12.5592,33.2285 Z M27.5972,10.4975 L2.4032,10.4975 C1.0782,10.4975 0.0002,11.5565 0.0002,12.8585 L0.0002,29.2165 C0.0002,30.5185 1.0782,31.5765 2.4032,31.5765 L11.4362,31.5765 L11.1972,33.7955 C11.1782,33.9745 11.2372,34.1545 11.3602,34.2865 C11.4822,34.4215 11.6572,34.4975 11.8402,34.4975 L18.6772,34.4975 C18.8602,34.4975 19.0352,34.4215 19.1572,34.2865 C19.2802,34.1545 19.3402,33.9745 19.3202,33.7955 L19.0812,31.5765 L27.5972,31.5765 C28.9222,31.5765 30.0002,30.5185 30.0002,29.2165 L30.0002,12.8585 C30.0002,11.5565 28.9222,10.4975 27.5972,10.4975 L27.5972,10.4975 Z" fill="#55a4d3"></path>
        <path class="icon-drawing2" d="M17.5993,17.9978 C16.1843,17.9978 15.0073,17.4978 14.0013,16.4678 C12.9913,15.4348 12.5003,14.2258 12.5003,12.7708 C12.5003,11.7478 12.7723,10.7998 13.3093,9.9518 C13.8483,9.1038 14.5643,8.4618 15.4393,8.0458 L15.7473,7.8988 L15.7233,7.5588 C15.7073,7.3358 15.7003,7.1648 15.7003,7.0448 C15.7003,5.3578 16.2663,3.9588 17.4323,2.7668 C18.5953,1.5778 19.9583,0.9998 21.5993,0.9998 C22.8043,0.9998 23.9123,1.3488 24.8923,2.0348 C25.8783,2.7248 26.6073,3.6398 27.0593,4.7528 L27.3283,5.4148 L27.8583,4.9348 C28.3503,4.4888 28.9203,4.2718 29.5983,4.2718 C30.3473,4.2718 30.9703,4.5368 31.5023,5.0808 C32.0373,5.6278 32.2973,6.2698 32.2973,7.0448 C32.2973,7.5918 32.1543,8.0808 31.8623,8.5398 L31.4853,9.1328 L32.1693,9.2948 C33.1393,9.5258 33.9193,10.0298 34.5533,10.8368 C35.1873,11.6438 35.4963,12.5438 35.4963,13.5888 C35.4963,14.8198 35.0833,15.8408 34.2323,16.7098 C33.3853,17.5768 32.3923,17.9978 31.1973,17.9978 L17.5993,17.9978 Z" fill="#FFFFFF" stroke="#55a4d3" stroke-width="1"></path>
    </g>
    <circle class="state" cx="17" cy="15" r="4" fill="#818181" fill-rule="evenodd" stroke="#FFFFFF" stroke-width="2" ></circle>
</svg>