<?xml version="1.0" encoding="UTF-8" standalone="no"?>
<svg width="40px" height="40px" viewBox="0 0 40 40" version="1.1" xmlns="http://www.w3.org/2000/svg" xmlns:xlink="http://www.w3.org/1999/xlink">
    <!-- Generator: Sketch 41.2 (35397) - http://www.bohemiancoding.com/sketch -->
    <title>el-user</title>
    <desc>Created with Sketch.</desc>
    <circle class="frame" cx="20" cy="20" r="16" stroke="#818181" stroke-width="2" fill="#FFFFFF" ></circle>
    <g id="icons-/-ic-user" transform="translate(14.000000, 8.000000)" fill="#818181">
        <path d="M11.242,13.269 L11.242,12.957 C11.242,12.365 10.905,11.831 10.362,11.565 L7.922,10.37 C7.448,10.137 7.154,9.67 7.154,9.15 L7.154,8.041 L7.205,7.985 C7.328,7.846 7.398,7.758 7.47,7.659 C7.766,7.248 8.001,6.787 8.165,6.284 L8.239,6.061 L8.465,5.992 C8.597,5.952 8.686,5.838 8.686,5.708 L8.686,4.706 C8.686,4.623 8.651,4.547 8.583,4.487 L8.431,4.353 L8.433,2.671 C8.435,2.641 8.501,2.02 8.071,1.542 C7.685,1.117 7.014,0.901 6.077,0.901 C5.135,0.901 4.462,1.119 4.079,1.547 C3.765,1.897 3.717,2.314 3.713,2.517 L3.721,2.616 L3.721,4.353 L3.57,4.487 C3.502,4.547 3.466,4.623 3.466,4.706 L3.466,5.708 C3.466,5.808 3.519,5.902 3.609,5.959 L3.765,6.057 L3.807,6.236 C3.826,6.316 3.847,6.391 3.871,6.466 C3.911,6.593 3.933,6.661 3.959,6.724 L4,6.829 L3.871,7.037 L4.05,6.948 L4.16,7.175 C4.219,7.29 4.276,7.392 4.332,7.483 L4.414,7.615 C4.468,7.696 4.513,7.76 4.55,7.81 L4.682,7.976 L4.744,8.121 L4.744,9.126 C4.744,9.625 4.466,10.084 4.019,10.324 L1.74,11.542 C1.228,11.815 0.911,12.338 0.911,12.909 L0.911,13.269 L11.242,13.269 Z M0,14.169 L0,12.909 C0,12.007 0.501,11.18 1.306,10.748 L2.687,10.011 L2.767,9.846 L2.963,9.864 L3.586,9.531 C3.738,9.45 3.832,9.294 3.832,9.126 L3.832,8.365 C3.76,8.266 3.711,8.196 3.655,8.111 L3.522,7.899 L3.348,7.585 L3.207,7.286 L3.138,7.123 L3.027,6.816 L2.964,6.602 C2.845,6.498 2.746,6.371 2.678,6.231 C2.657,6.191 2.642,6.148 2.63,6.105 L2.781,5.931 L2.587,5.978 C2.565,5.891 2.554,5.8 2.554,5.708 L2.554,4.706 C2.554,4.443 2.645,4.187 2.81,3.976 L2.81,2.865 L2.817,2.285 C2.857,1.915 2.989,1.405 3.395,0.951 C3.96,0.321 4.862,0 6.077,0 C7.291,0 8.193,0.321 8.758,0.951 C9.416,1.687 9.359,2.57 9.342,2.74 L9.343,3.976 C9.508,4.187 9.598,4.443 9.598,4.706 L9.598,5.708 C9.598,6.145 9.352,6.548 8.965,6.757 C8.776,7.272 8.522,7.75 8.211,8.182 C8.161,8.251 8.112,8.316 8.065,8.374 L8.065,9.15 C8.065,9.326 8.165,9.484 8.326,9.562 L10.766,10.758 C11.622,11.177 12.153,12.02 12.153,12.957 L12.153,14.169 L0,14.169 Z"></path>
    </g>
</svg>