<?xml version="1.0" encoding="UTF-8" standalone="no"?>
<svg width="72px" height="72px" viewBox="0 0 72 72" version="1.1" xmlns="http://www.w3.org/2000/svg" xmlns:xlink="http://www.w3.org/1999/xlink">
    <!-- Generator: Sketch 41.2 (35397) - http://www.bohemiancoding.com/sketch -->
    <title>el-phone</title>
    <desc>Created with Sketch.</desc>
    <circle class="frame" cx="36" cy="36" r="32" stroke="#818181" stroke-width="2" fill="#FFFFFF" ></circle>
    <g id="content" transform="translate(26.000000, 10.000000)">
        <text id="430" font-family=""Open Sans"-Semibold, Open Sans" font-size="12" font-weight="500"></text>
        <g id="icons-/-ic-phone" transform="translate(1.000000, 0.000000)" fill="#818181">
            <path d="M11.129,1.598 L10.599,1.598 C10.307,1.598 10.068,1.838 10.068,2.132 C10.068,2.426 10.307,2.665 10.599,2.665 L11.129,2.665 C11.422,2.665 11.659,2.426 11.659,2.132 C11.659,1.838 11.422,1.598 11.129,1.598 L11.129,1.598 Z M9.01,1.598 L6.891,1.598 C6.596,1.598 6.36,1.838 6.36,2.132 C6.36,2.426 6.596,2.665 6.891,2.665 L9.01,2.665 C9.302,2.665 9.541,2.426 9.541,2.132 C9.541,1.838 9.302,1.598 9.01,1.598 L9.01,1.598 Z M9.01,27.181 C9.595,27.181 10.068,27.66 10.068,28.244 C10.068,28.833 9.595,29.312 9.01,29.312 C8.425,29.312 7.949,28.833 7.949,28.244 C7.949,27.66 8.425,27.181 9.01,27.181 L9.01,27.181 Z M9.01,30.379 C10.18,30.379 11.129,29.421 11.129,28.244 C11.129,27.072 10.18,26.114 9.01,26.114 C7.84,26.114 6.891,27.072 6.891,28.244 C6.891,29.421 7.84,30.379 9.01,30.379 L9.01,30.379 Z M16.959,3.199 L1.062,3.199 L1.062,2.348 C1.062,1.642 1.633,1.068 2.335,1.068 L15.683,1.068 C16.387,1.068 16.959,1.642 16.959,2.348 L16.959,3.199 Z M1.062,24.516 L16.959,24.516 L16.959,4.263 L1.062,4.263 L1.062,24.516 Z M16.959,29.63 C16.959,30.334 16.387,30.91 15.683,30.91 L2.335,30.91 C1.633,30.91 1.062,30.334 1.062,29.63 L1.062,25.58 L16.959,25.58 L16.959,29.63 Z M15.683,0 L2.335,0 C1.048,0 0,1.055 0,2.348 L0,29.63 C0,30.923 1.048,31.977 2.335,31.977 L15.683,31.977 C16.972,31.977 18.018,30.923 18.018,29.63 L18.018,2.348 C18.018,1.055 16.972,0 15.683,0 L15.683,0 Z"></path>
        </g>
    </g>
</svg>