<?xml version="1.0" encoding="UTF-8" standalone="no"?>
<svg
   xmlns:dc="http://purl.org/dc/elements/1.1/"
   xmlns:cc="http://creativecommons.org/ns#"
   xmlns:rdf="http://www.w3.org/1999/02/22-rdf-syntax-ns#"
   xmlns:svg="http://www.w3.org/2000/svg"
   xmlns="http://www.w3.org/2000/svg"
   xmlns:xlink="http://www.w3.org/1999/xlink"
   id="svg2"
   version="1.1"
   viewBox="0 0 60 60"
   height="60"
   width="60">
  <metadata
     id="metadata25">
    <rdf:RDF>
      <cc:Work
         rdf:about="">
        <dc:format>image/svg+xml</dc:format>
        <dc:type
           rdf:resource="http://purl.org/dc/dcmitype/StillImage" />
        <dc:title>nt-elements/ el-users</dc:title>
      </cc:Work>
    </rdf:RDF>
  </metadata>
  <!-- Generator: Sketch 41.2 (35397) - http://www.bohemiancoding.com/sketch -->
  <title
     id="title4">nt-elements/ el-users</title>
  <desc
     id="desc6">Created with Sketch.</desc>
  <defs
     id="defs8">
    <circle
       r="30"
       cy="30"
       cx="30"
       id="path-1" />
    <mask
       fill="white"
       height="60"
       width="60"
       y="0"
       x="0"
       maskUnits="objectBoundingBox"
       maskContentUnits="userSpaceOnUse"
       id="mask-2">
      <use
         height="100%"
         width="100%"
         y="0"
         x="0"
         id="use12"
         xlink:href="#path-1" />
    </mask>
    <mask
       fill="white"
       height="60"
       width="60"
       y="0"
       x="0"
       maskUnits="objectBoundingBox"
       maskContentUnits="userSpaceOnUse"
       id="mask-2-3">
      <use
         height="100%"
         width="100%"
         y="0"
         x="0"
         id="use12-6"
         xlink:href="#path-1" />
    </mask>
  </defs>
  <g
     style="fill:none;fill-rule:evenodd;stroke:none;stroke-width:1"
     id="Style-Guide">
    <g
       transform="translate(-196,-159)"
       id="Network_Topology_Elements" />
  </g>
  <g
     transform="translate(0,-40)"
     id="layer1">
    <g
       transform="matrix(1.7073114,0,0,1.7072612,11.207622,47.245967)"
       style="fill:#ffffff;fill-opacity:1;fill-rule:evenodd;stroke:none;stroke-width:1;stroke-opacity:1"
       id="icons-/-ic-users">
      <path
         style="fill:#ffffff;fill-opacity:1;stroke:none;stroke-opacity:1"
         id="path21"
         d="m 5.043,18.895 0,-0.598 c 0,-1.251 0.689,-2.4 1.799,-3 l 1.97,-1.064 0.099,-0.206 0.244,0.021 0.901,-0.486 c 0.241,-0.13 0.39,-0.38 0.39,-0.65 l 0,-1.174 -0.03,0.019 C 10.35,11.668 10.272,11.556 10.183,11.419 L 9.941,11.021 9.753,10.673 9.574,10.297 9.463,10.026 9.354,9.736 9.268,9.472 C 9.247,9.404 9.228,9.335 9.209,9.266 9.042,9.122 8.905,8.944 8.81,8.749 8.782,8.694 8.765,8.64 8.748,8.584 8.709,8.478 8.695,8.444 8.688,8.408 8.659,8.286 8.646,8.164 8.646,8.043 l 0,-1.425 c 0,-0.365 0.127,-0.721 0.36,-1.01 l 0,-1.505 C 8.48,3.775 7.82,3.609 7.044,3.609 4.168,3.609 4.007,5.842 4.001,5.937 L 4.002,7.933 3.817,8.098 C 3.696,8.207 3.643,8.312 3.643,8.368 l 0,1.231 c 0,0.123 0.064,0.238 0.172,0.307 l 0.192,0.123 0.051,0.221 c 0.269,1.162 1.179,2.01 1.189,2.019 l 0.18,0.167 0,1.367 c 0,0.615 -0.339,1.18 -0.884,1.474 L 2.157,16.759 C 1.514,17.107 1.12,17.755 1.12,18.455 l 0,0.44 3.923,0 z m 15.851,0 0,-0.528 c 0,-0.878 -0.494,-1.667 -1.288,-2.06 L 16.165,14.604 C 15.526,14.289 15.13,13.653 15.13,12.945 l 0,-1.546 0.139,-0.158 c 0.087,-0.098 0.187,-0.225 0.289,-0.368 0.424,-0.594 0.759,-1.261 0.994,-1.983 l 0.09,-0.275 0.278,-0.086 c 0.222,-0.068 0.371,-0.263 0.371,-0.486 l 0,-1.425 c 0,-0.142 -0.061,-0.276 -0.174,-0.377 L 16.931,6.075 16.934,3.718 C 16.937,3.687 17.033,2.763 16.4,2.055 15.843,1.43 14.877,1.114 13.528,1.114 c -1.352,0 -2.321,0.319 -2.878,0.948 -0.468,0.529 -0.537,1.15 -0.537,1.468 l 0.013,0.109 0,2.436 -0.185,0.166 C 9.828,6.341 9.767,6.475 9.767,6.618 l 0,1.425 c 0,0.173 0.089,0.334 0.24,0.43 l 0.192,0.122 0.051,0.222 c 0.026,0.114 0.059,0.225 0.09,0.334 0.058,0.181 0.092,0.279 0.127,0.373 l 0.042,0.107 -0.128,0.216 0.183,-0.078 -0.135,0.188 0.181,-0.085 c 0.054,0.12 0.098,0.212 0.143,0.3 0.083,0.166 0.168,0.315 0.247,0.446 l 0.116,0.186 c 0.077,0.119 0.143,0.212 0.196,0.284 l 0.047,0.066 -0.009,0.011 0,0.041 -0.037,0 -0.089,0.099 0.199,-0.071 c 0.005,0.007 0.144,0.172 0.144,0.172 l 0,1.506 c 0,0.679 -0.375,1.304 -0.977,1.629 L 7.376,16.276 C 6.628,16.68 6.164,17.454 6.164,18.297 l 0,0.598 14.73,0 z M 0,20.008 0,18.455 C 0,17.347 0.61,16.329 1.593,15.798 L 3.98,14.316 c 0.209,-0.113 0.327,-0.303 0.327,-0.513 l 0,-0.898 C 3.98,12.556 3.317,11.754 3.017,10.697 2.701,10.416 2.522,10.02 2.522,9.599 l 0,-1.231 c 0,-0.318 0.124,-0.63 0.36,-0.907 l 0,-1.556 C 2.884,5.863 3.12,2.496 7.044,2.496 7.792,2.496 8.469,2.624 9.059,2.877 9.146,2.42 9.35,1.846 9.81,1.326 10.589,0.447 11.841,0 13.528,0 c 1.689,0 2.94,0.447 3.719,1.327 0.899,1.013 0.827,2.242 0.804,2.479 l 0.001,1.802 c 0.232,0.289 0.36,0.645 0.36,1.01 l 0,1.425 c 0,0.602 -0.342,1.156 -0.878,1.434 -0.262,0.736 -0.62,1.422 -1.061,2.04 -0.077,0.107 -0.152,0.205 -0.223,0.294 l 0,1.134 c 0,0.282 0.159,0.536 0.415,0.664 l 3.441,1.703 c 1.176,0.582 1.908,1.753 1.908,3.055 l 0,1.641 -22.014,0 z" />
    </g>
  </g>
  <g
     transform="matrix(0.59796768,0,0,0.59795009,-121.06285,-0.7580957)"
     id="nt-elements/-el-users"
     style="fill:none;fill-opacity:1;fill-rule:evenodd;stroke:#ffffff;stroke-width:3.34471157;stroke-miterlimit:4;stroke-dasharray:none;stroke-opacity:1">
    <circle
       r="49.169949"
       cy="51.440685"
       cx="252.62712"
       id="path4153"
       style="opacity:1;fill:none;fill-opacity:1;stroke:#ffffff;stroke-width:3.34471157;stroke-miterlimit:4;stroke-dasharray:none;stroke-opacity:1" />
  </g>
</svg>
