<?xml version="1.0" encoding="UTF-8" standalone="no"?>
<svg width="60px" height="60px" viewBox="0 0 60 60" version="1.1" xmlns="http://www.w3.org/2000/svg" xmlns:xlink="http://www.w3.org/1999/xlink">
    <!-- Generator: Sketch 41.2 (35397) - http://www.bohemiancoding.com/sketch -->
    <title>el-antenna</title>
    <desc>Created with Sketch.</desc>
    <circle class="frame" cx="30" cy="30" r="26" stroke="#818181" stroke-width="2" fill="#FFFFFF" ></circle>
    <g transform="translate(21.000000, 10.000000)" fill="#818181">
        <path d="M9.6582,35.7557 L9.6582,29.8627 L13.4272,27.3207 L15.2642,32.5737 L9.6582,35.7557 Z M9.0002,9.4547 C8.6372,9.4547 8.3422,9.1657 8.3422,8.8107 C8.3422,8.4547 8.6372,8.1657 9.0002,8.1657 C9.3632,8.1657 9.6582,8.4547 9.6582,8.8107 C9.6582,9.1657 9.3632,9.4547 9.0002,9.4547 L9.0002,9.4547 Z M10.8042,19.8267 L9.6582,20.7807 L9.6582,16.5497 L10.8042,19.8267 Z M12.9832,26.0547 L9.6582,28.2977 L9.6582,22.4747 L11.2632,21.1387 L12.9832,26.0547 Z M8.3422,20.7807 L7.1952,19.8267 L8.3422,16.5497 L8.3422,20.7807 Z M8.3422,28.2977 L5.0162,26.0547 L6.7362,21.1377 L8.3422,22.4747 L8.3422,28.2977 Z M8.3422,35.7557 L2.7352,32.5737 L4.5732,27.3207 L8.3422,29.8627 L8.3422,35.7557 Z M16.6882,32.6647 C16.6872,32.6627 16.6862,32.6607 16.6862,32.6587 L9.6582,12.5707 L9.6582,10.6327 C10.4252,10.3667 10.9752,9.6507 10.9752,8.8107 C10.9752,7.7437 10.0902,6.8767 9.0002,6.8767 C7.9102,6.8767 7.0242,7.7437 7.0242,8.8107 C7.0242,9.6507 7.5752,10.3667 8.3422,10.6327 L8.3422,12.5707 L5.8032,19.8277 C5.8012,19.8337 5.7992,19.8387 5.7972,19.8437 L3.6092,26.0967 C3.6062,26.1057 3.6032,26.1127 3.6002,26.1207 L0.1622,35.9507 C0.0442,36.2877 0.2272,36.6537 0.5712,36.7697 C0.6422,36.7937 0.7142,36.8047 0.7852,36.8047 C1.0582,36.8047 1.3142,36.6367 1.4082,36.3687 L2.3012,33.8187 L8.3422,37.2447 L8.3422,40.3557 C8.3422,40.7107 8.6372,40.9997 9.0002,40.9997 C9.3632,40.9997 9.6582,40.7107 9.6582,40.3557 L9.6582,37.2447 L15.6992,33.8187 L16.5912,36.3667 C16.7092,36.7037 17.0832,36.8837 17.4282,36.7687 C17.7712,36.6517 17.9552,36.2857 17.8382,35.9487 L16.6882,32.6647 Z M11.4012,12.1447 C11.1042,12.3507 11.0342,12.7537 11.2442,13.0437 C11.3732,13.2217 11.5762,13.3157 11.7822,13.3157 C11.9142,13.3157 12.0472,13.2777 12.1622,13.1977 C13.6182,12.1897 14.4882,10.5487 14.4882,8.8107 C14.4882,5.8477 12.0262,3.4387 9.0002,3.4387 C5.9732,3.4387 3.5122,5.8477 3.5122,8.8107 C3.5122,10.5487 4.3822,12.1897 5.8382,13.1977 C6.1352,13.4037 6.5462,13.3347 6.7562,13.0437 C6.9662,12.7537 6.8952,12.3507 6.5982,12.1447 C5.4902,11.3787 4.8292,10.1307 4.8292,8.8107 C4.8292,6.5587 6.7002,4.7277 9.0002,4.7277 C11.3002,4.7277 13.1712,6.5587 13.1712,8.8107 C13.1712,10.1307 12.5102,11.3787 11.4012,12.1447 L11.4012,12.1447 Z M4.7402,16.5677 C5.0602,16.7367 5.4602,16.6197 5.6332,16.3067 C5.8052,15.9927 5.6852,15.6027 5.3662,15.4337 C2.8692,14.1137 1.3172,11.5767 1.3172,8.8107 C1.3172,4.6627 4.7632,1.2897 9.0002,1.2897 C13.2362,1.2897 16.6822,4.6627 16.6822,8.8107 C16.6822,11.5767 15.1312,14.1137 12.6342,15.4337 C12.3142,15.6027 12.1942,15.9937 12.3672,16.3067 C12.4862,16.5227 12.7132,16.6457 12.9472,16.6457 C13.0532,16.6457 13.1602,16.6207 13.2602,16.5677 C16.1832,15.0237 18.0002,12.0507 18.0002,8.8107 C18.0002,3.9517 13.9632,-0.0003 9.0002,-0.0003 C4.0372,-0.0003 0.0002,3.9517 0.0002,8.8107 C0.0002,12.0507 1.8162,15.0237 4.7402,16.5677 L4.7402,16.5677 Z"></path>
    </g>
</svg>