<?xml version="1.0" encoding="UTF-8" standalone="no"?>
<svg
   xmlns:dc="http://purl.org/dc/elements/1.1/"
   xmlns:cc="http://creativecommons.org/ns#"
   xmlns:rdf="http://www.w3.org/1999/02/22-rdf-syntax-ns#"
   xmlns:svg="http://www.w3.org/2000/svg"
   xmlns="http://www.w3.org/2000/svg"
   id="svg14"
   version="1.1"
   viewBox="0 0 60 60"
   height="60px"
   width="60px">
  <metadata
     id="metadata20">
    <rdf:RDF>
      <cc:Work
         rdf:about="">
        <dc:format>image/svg+xml</dc:format>
        <dc:type
           rdf:resource="http://purl.org/dc/dcmitype/StillImage" />
        <dc:title>el-server</dc:title>
      </cc:Work>
    </rdf:RDF>
  </metadata>
  <defs
     id="defs18" />
  <!-- Generator: Sketch 41.2 (35397) - http://www.bohemiancoding.com/sketch -->
  <title
     id="title2">el-server</title>
  <desc
     id="desc4">Created with Sketch.</desc>
  <g
     style="fill:#333a4d;fill-opacity:1"
     id="g10"
     transform="matrix(1.788043,0,0,1.6910997,1.3875571,2.9388535)">
    <path
       style="fill:#333a4d;fill-opacity:1"
       id="path8"
       d="m 31.0066,30.0046 c 0,0.553 -0.449,1.002 -1.002,1.002 H 1.9996 c -0.552,0 -0.998,-0.449 -0.998,-1.002 v -6.002 c 0,-0.549 0.446,-0.998 0.998,-0.998 h 28.005 c 0.553,0 1.002,0.449 1.002,0.998 z m -1.002,-8.002 H 1.9996 c -1.103,0 -2,0.897 -2,2 v 6.002 c 0,1.104 0.897,2 2,2 h 28.005 c 1.105,0 2,-0.896 2,-2 v -6.002 c 0,-1.103 -0.895,-2 -2,-2 z m -3.502,3.502 c -0.827,0 -1.498,0.672 -1.498,1.499 0,0.828 0.671,1.5 1.498,1.5 0.829,0 1.5,-0.672 1.5,-1.5 0,-0.827 -0.671,-1.499 -1.5,-1.499 z m -12.502,1.006 H 3.9996 c -0.27,0 -0.493,0.223 -0.493,0.493 0,0.274 0.223,0.493 0.493,0.493 h 10.001 c 0.275,0 0.494,-0.219 0.494,-0.493 0,-0.27 -0.219,-0.493 -0.494,-0.493 z m 17.006,-7.509 c 0,0.552 -0.449,1.002 -1.002,1.002 H 1.9996 c -0.552,0 -0.998,-0.45 -0.998,-1.002 v -5.999 c 0,-0.552 0.446,-1.001 0.998,-1.001 h 28.005 c 0.553,0 1.002,0.449 1.002,1.001 z m -1.002,-7.999 H 1.9996 c -1.103,0 -2,0.894 -2,2 v 5.999 c 0,1.107 0.897,2.003 2,2.003 h 28.005 c 1.105,0 2,-0.896 2,-2.003 v -5.999 c 0,-1.106 -0.895,-2 -2,-2 z m -3.502,3.499 c -0.827,0 -1.498,0.672 -1.498,1.5 0,0.83 0.671,1.501 1.498,1.501 0.829,0 1.5,-0.671 1.5,-1.501 0,-0.828 -0.671,-1.5 -1.5,-1.5 z m -12.502,1.009 H 3.9996 c -0.27,0 -0.493,0.22 -0.493,0.493 0,0.271 0.223,0.493 0.493,0.493 h 10.001 c 0.275,0 0.494,-0.222 0.494,-0.493 0,-0.273 -0.219,-0.493 -0.494,-0.493 z m 17.006,-7.509 c 0,0.552 -0.449,0.999 -1.002,0.999 H 1.9996 c -0.552,0 -0.998,-0.447 -0.998,-0.999 v -6.002 c 0,-0.552 0.446,-0.998 0.998,-0.998 h 28.005 c 0.553,0 1.002,0.446 1.002,0.998 z M 30.0046,-4e-4 H 1.9996 c -1.103,0 -2,0.897 -2,2 v 6.002 c 0,1.104 0.897,2 2,2 h 28.005 c 1.105,0 2,-0.896 2,-2 v -6.002 c 0,-1.103 -0.895,-2 -2,-2 z m -3.502,3.502 c -0.827,0 -1.498,0.672 -1.498,1.499 0,0.828 0.671,1.499 1.498,1.499 0.829,0 1.5,-0.671 1.5,-1.499 0,-0.827 -0.671,-1.499 -1.5,-1.499 z m -12.502,1.006 H 3.9996 c -0.27,0 -0.493,0.22 -0.493,0.493 0,0.274 0.223,0.493 0.493,0.493 h 10.001 c 0.275,0 0.494,-0.219 0.494,-0.493 0,-0.273 -0.219,-0.493 -0.494,-0.493 z"
       class="icon-drawing" />
  </g>
</svg>
