<?xml version="1.0" encoding="UTF-8" standalone="no"?>
<svg
   xmlns:dc="http://purl.org/dc/elements/1.1/"
   xmlns:cc="http://creativecommons.org/ns#"
   xmlns:rdf="http://www.w3.org/1999/02/22-rdf-syntax-ns#"
   xmlns:svg="http://www.w3.org/2000/svg"
   xmlns="http://www.w3.org/2000/svg"
   id="svg31"
   version="1.1"
   viewBox="0 0 208 226"
   height="226px"
   width="208px">
  <!-- Generator: Sketch 42 (36781) - http://www.bohemiancoding.com/sketch -->
  <title
     id="title2">illustration-no-data</title>
  <g
     id="g20"
     transform="translate(4,-1)">
    <circle
       style="fill:#f1f0f0;stroke:#cccccc;stroke-width:8"
       r="100"
       cy="123"
       cx="100"
       id="background" />
    <g
       transform="translate(22,1)"
       id="ic-uploaded">
      <polygon
         style="fill:#ffffff"
         points="154,53.733871 109,4 5.25,4 4,224.25 155.25,222.82903 "
         id="Path-2" />
      <path
         style="fill:#cccccc"
         id="Shape"
         d="M 6.6666667,6.6666667 H 103.33333 V 53.333333 H 150 V 217.33333 h 6.66667 V 48.62 L 108.04667,0 H 0 v 224 h 156.66667 v -6.66667 H 6.6666667 Z M 110,11.38 145.28667,46.666667 H 110 Z" />
      <g
         style="opacity:0.3;fill:#cccccc"
         transform="translate(25,76)"
         id="lines">
        <rect
           rx="3"
           height="6"
           width="60"
           y="48"
           x="0"
           id="line" />
        <rect
           rx="3"
           height="6"
           width="80"
           y="32"
           x="0"
           id="rect12" />
        <rect
           rx="3"
           height="6"
           width="100"
           y="16"
           x="0"
           id="rect14" />
        <rect
           rx="3"
           height="6"
           width="110"
           y="0"
           x="0"
           id="rect16" />
      </g>
    </g>
  </g>
</svg>
