<?xml version="1.0" encoding="UTF-8" standalone="no"?>
<svg width="176px" height="50px" viewBox="0 0 176 50" version="1.1" xmlns="http://www.w3.org/2000/svg" xmlns:xlink="http://www.w3.org/1999/xlink">
    <!-- Generator: Sketch 41.2 (35397) - http://www.bohemiancoding.com/sketch -->
    <title>logos / logo-selfnet</title>
    <desc>Created with Sketch.</desc>
    <defs>
        <polygon id="path-1" points="0 49.774459 175.76341 49.774459 175.76341 0 0 0"></polygon>
    </defs>
    <g id="UI-Design" stroke="none" stroke-width="1" fill="black" fill-rule="evenodd">
        <g id="SDN_Apps_List" transform="translate(-12.000000, -15.000000)">
            <g id="sidebar-admin">
                <g id="area-logo">
                    <g id="logos-/-logo-selfnet" transform="translate(12.000000, 15.000000)">
                        <g id="logo-/-logo-selfnet">
                            <path d="M77.0260393,17.6782262 C75.2094164,14.7583574 72.2895475,14.331341 69.4764328,14.2959967 C66.5565639,14.2959967 61.9286295,15.3638984 61.9286295,19.3520295 C61.9286295,22.5211115 65.3465639,23.2691115 69.5482033,24.0520951 C74.3553836,24.9778984 79.3407279,25.8315705 79.3407279,31.2100295 C79.3043016,36.8355377 73.6430885,38.1879967 69.4764328,38.1879967 C65.595777,38.1879967 61.1802689,36.5866852 59.2576131,32.7759967 L60.9667607,31.9216033 C62.4977443,34.9475049 66.4144656,36.4431443 69.4764328,36.4431443 C72.539482,36.4431443 77.4169902,35.5891115 77.4169902,31.1732426 C77.4530557,27.4346852 73.3224656,26.6156361 69.2275803,25.8315705 C64.6699738,24.9429148 60.0052525,24.0167508 60.0052525,19.4230787 C59.8981377,14.1535377 65.3819082,12.5158 69.4764328,12.5158 C73.0379082,12.5158 76.1352197,13.0849148 78.5923672,16.7531443 L77.0260393,17.6782262 Z" id="Fill-1" fill="#323232"></path>
                            <path d="M99.2803377,28.2897279 C99.2435508,23.9449082 96.3958131,21.5241869 92.1588295,21.5241869 C88.5270262,21.5241869 85.3929279,23.9809738 85.0008951,28.2897279 L99.2803377,28.2897279 Z M83.2206984,29.002023 C83.2206984,23.7317607 87.2084689,19.9221541 92.1588295,19.9221541 C97.1081082,19.9221541 101.523256,22.9484164 100.847026,29.8207115 L85.0008951,29.8207115 C85.3575836,33.950941 88.5270262,36.336318 92.1588295,36.336318 C94.4727967,36.336318 97.1791574,35.4101541 98.4962721,33.6663836 L99.7426984,34.6628754 C98.0335508,36.9061541 94.9715836,38.0461869 92.1588295,38.0461869 C87.2084689,38.0461869 83.2206984,34.5918262 83.2206984,29.002023 L83.2206984,29.002023 Z" id="Fill-3" fill="#323232"></path>
                            <mask id="mask-2" fill="white">
                                <use xlink:href="#path-1"></use>
                            </mask>
                            <g id="Clip-6"></g>
                            <polygon id="Fill-5" fill="#323232" mask="url(#mask-2)" points="105.367738 37.7967213 107.113311 37.7967213 107.113311 12.8714426 105.367738 12.8714426"></polygon>
                            <path d="M113.806613,37.7967574 L113.806613,21.8799377 L110.209793,21.8799377 L110.209793,20.3489541 L113.806613,20.3489541 L113.806613,18.7819049 C113.806613,15.2925607 115.195859,12.7643639 119.076515,12.7643639 C120.39399,12.7643639 121.569007,13.2274459 122.56622,13.9750852 L121.712187,15.257577 C120.749957,14.6873803 120.074449,14.3667574 119.005826,14.3667574 C116.798252,14.3667574 115.516121,15.7202984 115.516121,18.7819049 L115.516121,20.3489541 L121.319793,20.3489541 L121.319793,21.8799377 L115.516121,21.8799377 L115.516121,37.7967574 L113.806613,37.7967574 Z" id="Fill-7" fill="#323232" mask="url(#mask-2)"></path>
                            <path d="M126.020977,20.2063148 L126.020977,23.3396918 C127.373436,20.9186098 129.830223,19.922118 132.28701,19.8860525 C136.987075,19.8860525 140.227928,22.7698557 140.227928,27.6484459 L140.227928,37.796577 L138.483436,37.796577 L138.483436,27.6837902 C138.483436,23.6960197 136.025928,21.5598557 132.216682,21.5952 C128.584157,21.6309049 126.056321,24.3729705 126.056321,28.0044131 L126.056321,37.796577 L124.311108,37.796577 L124.311108,20.2063148 L126.020977,20.2063148 Z" id="Fill-8" fill="#323232" mask="url(#mask-2)"></path>
                            <path d="M159.846554,28.2897279 C159.810849,23.9449082 156.963111,21.5241869 152.724685,21.5241869 C149.093243,21.5241869 145.960226,23.9809738 145.567833,28.2897279 L159.846554,28.2897279 Z M143.787997,29.002023 C143.787997,23.7317607 147.775767,19.9221541 152.724685,19.9221541 C157.675046,19.9221541 162.090554,22.9484164 161.413964,29.8207115 L145.567833,29.8207115 C145.9238,33.950941 149.093243,36.336318 152.724685,36.336318 C155.039734,36.336318 157.745374,35.4101541 159.063931,33.6663836 L160.309636,34.6628754 C158.600849,36.9061541 155.538882,38.0461869 152.724685,38.0461869 C147.775767,38.0461869 143.787997,34.5918262 143.787997,29.002023 L143.787997,29.002023 Z" id="Fill-9" fill="#323232" mask="url(#mask-2)"></path>
                            <path d="M169.211269,14.9014295 L169.211269,20.2063148 L175.194187,20.2063148 L175.194187,21.6669705 L169.211269,21.6669705 L169.211269,32.3849377 C169.211269,34.7699541 169.710777,36.4430361 172.451761,36.4430361 C173.306154,36.4430361 174.268023,36.1588393 175.157761,35.7311016 L175.763302,37.1553311 C174.659334,37.689823 173.556449,38.0461508 172.451761,38.0461508 C168.712843,38.0461508 167.502843,35.8382164 167.502843,32.3849377 L167.502843,21.6669705 L163.763925,21.6669705 L163.763925,20.2063148 L167.502843,20.2063148 L167.502843,15.0788721 L169.211269,14.9014295 Z" id="Fill-10" fill="#323232" mask="url(#mask-2)"></path>
                            <path d="M21.0881541,0.000108196721 C20.1619902,0.000108196721 19.3674656,0.542534426 18.9696623,1.32732131 C8.12185902,3.71089508 -0.000108196721,13.3692557 -0.000108196721,24.933682 C-0.000108196721,37.1927311 9.12556393,47.3141738 20.9532689,48.8931246 L20.9532689,45.7074525 C10.8505803,44.1537475 3.11559672,35.4251574 3.11559672,24.8886 C3.11559672,14.8299115 10.1664164,6.42374754 19.5954,4.32941967 C20.0054656,4.66591148 20.520482,4.87617377 21.0881541,4.87617377 C22.4095967,4.87617377 23.4814656,3.78482951 23.4814656,2.43814098 C23.4814656,1.09181311 22.4095967,0.000108196721 21.0881541,0.000108196721" id="Fill-11" fill="#1F2758" mask="url(#mask-2)"></path>
                            <path d="M48.3622033,24.9335738 C48.3622033,12.6590164 39.2134492,2.52747541 27.3637443,0.968 L27.3637443,4.06242623 C37.4884328,5.59701639 45.2461377,14.3360656 45.2461377,24.8884918 C45.2461377,34.9215738 38.2313836,43.3100656 28.8399082,45.4303607 C28.4320066,45.1025246 27.9242033,44.8983934 27.3637443,44.8983934 C26.0426623,44.8983934 24.9711541,45.9900984 24.9711541,47.3360656 C24.9711541,48.6834754 26.0426623,49.774459 27.3637443,49.774459 C28.2574492,49.774459 29.0267279,49.2702623 29.4378754,48.5312787 C40.2636787,46.1307541 48.3622033,36.4821311 48.3622033,24.9335738" id="Fill-12" fill="#1F2758" mask="url(#mask-2)"></path>
                            <path d="M24.2032098,8.35293115 C16.6164557,8.35293115 10.2407836,13.5103082 8.37366885,20.5084721 C7.75225902,20.9488328 7.34327541,21.6795213 7.34327541,22.5090295 C7.34327541,23.8560787 8.41514426,24.947423 9.73694754,24.947423 C11.0583902,24.947423 12.129177,23.8560787 12.129177,22.5090295 C12.129177,21.9211607 11.9167508,21.3891934 11.5759311,20.9683082 C13.2461279,15.5750623 18.2617672,11.6540131 24.2032098,11.6540131 C30.3866525,11.6540131 35.5761279,15.8949639 37.0274066,21.6265049 L40.2927836,21.6265049 C38.8375377,14.0653574 32.1895705,8.35293115 24.2032098,8.35293115" id="Fill-13" fill="#1F9DD8" mask="url(#mask-2)"></path>
                            <path d="M41.1036459,27.2605967 C41.1036459,25.9146295 40.0324984,24.8236459 38.7110557,24.8236459 C37.3896131,24.8236459 36.3173836,25.9146295 36.3173836,27.2605967 C36.3173836,27.8311541 36.5179082,28.3494164 36.8406951,28.7645311 C35.1809574,34.1732852 30.1566623,38.1116459 24.203318,38.1116459 C17.9524328,38.1116459 12.7182361,33.7747607 11.3351213,27.9476459 L8.12997377,27.9476459 C9.62056393,35.4637115 16.2490557,41.1310557 24.203318,41.1310557 C31.6559082,41.1310557 37.945023,36.1550885 39.9347607,29.3459082 C40.6322689,28.9203344 41.1036459,28.1503344 41.1036459,27.2605967" id="Fill-14" fill="#1F9DD8" mask="url(#mask-2)"></path>
                        </g>
                    </g>
                </g>
            </g>
        </g>
    </g>
</svg>