<?xml version="1.0" encoding="UTF-8" standalone="no"?>
<!-- Created with Inkscape (http://www.inkscape.org/) -->

<svg
   xmlns:dc="http://purl.org/dc/elements/1.1/"
   xmlns:cc="http://creativecommons.org/ns#"
   xmlns:rdf="http://www.w3.org/1999/02/22-rdf-syntax-ns#"
   xmlns:svg="http://www.w3.org/2000/svg"
   xmlns="http://www.w3.org/2000/svg"
   xmlns:sodipodi="http://sodipodi.sourceforge.net/DTD/sodipodi-0.dtd"
   xmlns:inkscape="http://www.inkscape.org/namespaces/inkscape"
   width="60mm"
   height="60mm"
   viewBox="0 0 60 60"
   version="1.1"
   id="svg8"
   sodipodi:docname="nservice.svg"
   inkscape:version="0.92.2 (5c3e80d, 2017-08-06)">
  <defs
     id="defs2" />
  <sodipodi:namedview
     id="base"
     pagecolor="#ffffff"
     bordercolor="#666666"
     borderopacity="1.0"
     inkscape:pageopacity="0.0"
     inkscape:pageshadow="2"
     inkscape:zoom="0.7"
     inkscape:cx="440.98462"
     inkscape:cy="179.26781"
     inkscape:document-units="mm"
     inkscape:current-layer="layer1"
     showgrid="false"
     inkscape:window-width="1920"
     inkscape:window-height="1025"
     inkscape:window-x="1920"
     inkscape:window-y="27"
     inkscape:window-maximized="1" />
  <metadata
     id="metadata5">
    <rdf:RDF>
      <cc:Work
         rdf:about="">
        <dc:format>image/svg+xml</dc:format>
        <dc:type
           rdf:resource="http://purl.org/dc/dcmitype/StillImage" />
        <dc:title></dc:title>
      </cc:Work>
    </rdf:RDF>
  </metadata>
  <g
     inkscape:label="Layer 1"
     inkscape:groupmode="layer"
     id="layer1"
     transform="translate(0,-237)">
    <path
       style="color:#000000;clip-rule:nonzero;display:inline;overflow:visible;visibility:visible;opacity:1;isolation:auto;mix-blend-mode:normal;color-interpolation:sRGB;color-interpolation-filters:linearRGB;solid-color:#000000;solid-opacity:1;fill:none;fill-opacity:1;fill-rule:nonzero;stroke:#333a4d;stroke-width:7.55905533;stroke-linecap:butt;stroke-linejoin:miter;stroke-miterlimit:4;stroke-dasharray:none;stroke-dashoffset:0;stroke-opacity:1;color-rendering:auto;image-rendering:auto;shape-rendering:auto;text-rendering:auto;enable-background:accumulate"
       d="M 91.263672 15.914062 C 76.371861 15.914062 64.001313 21.159234 53.447266 31.949219 C 42.866002 42.766416 37.730469 55.462395 37.730469 70.771484 C 37.730469 71.860555 37.793979 73.411723 37.939453 75.435547 L 38.15625 78.521484 L 35.361328 79.855469 C 27.420833 83.630574 20.924549 89.456734 16.033203 97.152344 C 11.160008 104.84784 8.6914062 113.45083 8.6914062 122.73438 C 8.6914062 135.93827 13.146911 146.90907 22.3125 156.2832 C 31.441806 165.63039 42.121968 170.16797 54.962891 170.16797 L 99.779297 170.16797 C 99.986152 169.88113 100.23034 169.52678 100.43164 169.25 A 45.46772 45.46772 0 0 1 97.023438 159.99414 C 92.681475 158.77778 87.415672 157.17371 81.953125 155.49609 C 81.717509 153.32974 81.585938 151.13005 81.585938 148.89453 C 81.585938 146.16881 81.782727 143.49396 82.130859 140.87305 C 87.608642 139.37983 92.90155 137.94585 97.269531 136.86914 A 45.46772 45.46772 0 0 1 100.95508 127.53516 C 98.458613 123.85941 95.513811 119.3079 92.464844 114.57227 C 95.377597 110.48369 98.795331 106.78953 102.64648 103.58789 C 107.90831 106.07841 112.84876 108.44524 116.79688 110.46094 A 45.46772 45.46772 0 0 1 124.3418 106.62109 C 124.69939 102.45745 125.27252 97.328938 125.91602 91.832031 C 130.54347 90.685549 135.39699 90.072266 140.41016 90.072266 L 140.41016 90.070312 C 140.91682 90.070312 141.4146 90.098036 141.91797 90.109375 C 144.32968 95.37335 146.48772 100.18714 148.06641 104.01758 A 45.46772 45.46772 0 0 1 154.59375 105.48047 C 157.33356 102.64068 160.92237 99.143027 164.92383 95.316406 C 170.14947 97.677591 174.95202 100.77297 179.20508 104.48242 C 177.71734 110.08281 176.33249 115.0867 175.14062 118.86328 A 45.46772 45.46772 0 0 1 178.6543 123.37305 C 182.44465 122.96701 187.41521 122.61908 192.98828 122.29102 C 195.57375 127.45933 197.42312 133.07305 198.40234 139.00781 C 193.80071 142.26414 189.67585 145.1116 186.47656 147.14453 A 45.46772 45.46772 0 0 1 186.53711 148.88867 A 45.46772 45.46772 0 0 1 186.35547 152.51758 C 189.48076 154.64213 193.50859 157.61265 198.00195 161.00977 C 197.69097 162.5313 197.32113 164.02836 196.89648 165.50195 C 200.09309 163.69482 203.09029 161.36095 205.90625 158.47852 C 213.62895 150.59249 217.37695 141.32725 217.37695 130.15625 C 217.37695 120.67289 214.57182 112.505 208.81836 105.18164 C 203.06492 97.85805 195.9862 93.284974 187.18359 91.189453 L 180.97656 89.71875 L 184.39844 84.337891 C 187.04821 80.172624 188.3457 75.735591 188.3457 70.771484 C 188.3457 63.738615 185.9859 57.911146 181.13086 52.947266 C 176.30305 48.01056 170.65058 45.605469 163.85352 45.605469 C 157.70077 45.605469 152.52732 47.575589 148.0625 51.623047 L 143.25195 55.978516 L 140.8125 49.970703 C 136.71067 39.870256 130.09428 31.568335 121.14648 25.306641 C 112.25312 19.08123 102.19885 15.914062 91.263672 15.914062 z M 139.99414 128.17383 A 20.716062 20.716062 0 0 0 119.27734 148.88867 A 20.716062 20.716062 0 0 0 139.99414 169.60547 A 20.716062 20.716062 0 0 0 160.71094 148.88867 A 20.716062 20.716062 0 0 0 139.99414 128.17383 z "
       transform="matrix(0.26458333,0,0,0.26458333,0,237)"
       id="path14" />
    <path
       style="fill:none;fill-opacity:1;stroke:#333a4d;stroke-width:2;stroke-linejoin:round;stroke-miterlimit:4;stroke-dasharray:none;stroke-opacity:1"
       d="m 37.149758,260.8315 c -1.32641,0 -2.61011,0.16224 -3.83446,0.46558 -0.17025,1.45439 -0.32192,2.81145 -0.41653,3.91308 a 12.030001,12.030001 0 0 0 -1.99625,1.01604 c -1.04461,-0.53332 -2.35195,-1.15978 -3.74414,-1.81873 -1.01895,0.8471 -1.92318,1.82461 -2.69385,2.90638 0.80671,1.25297 1.58565,2.45707 2.24617,3.42961 a 12.030001,12.030001 0 0 0 -0.97477,2.46961 c -1.15569,0.28488 -2.5564,0.66456 -4.00573,1.05964 -0.0921,0.69345 -0.14403,1.4012 -0.14403,2.12238 0,0.59148 0.035,1.17315 0.0973,1.74633 1.4453,0.44387 2.83824,0.8686 3.98705,1.19043 a 12.030001,12.030001 0 0 0 0.90158,2.44859 c -0.68838,0.9465 -1.50325,2.12214 -2.3505,3.35175 0.74961,1.11531 1.64298,2.12251 2.65103,3.00293 1.43263,-0.62339 2.76624,-1.21182 3.82277,-1.71284 a 12.030001,12.030001 0 0 0 1.85299,1.00669 c 0.057,1.09588 0.16429,2.45775 0.29041,3.93176 1.35798,0.3824 2.79287,0.5915 4.28291,0.59405 0.69026,-1.39161 1.30214,-2.65484 1.74165,-3.64526 a 12.030001,12.030001 0 0 0 1.58673,-0.30363 c 0.69016,0.76871 1.61525,1.73085 2.65648,2.79193 1.42589,-0.58086 2.74264,-1.36399 3.91386,-2.31778 -0.35044,-1.50392 -0.67744,-2.84111 -0.96153,-3.83525 a 12.030001,12.030001 0 0 0 0.90392,-1.07675 c 0.99331,0.14177 2.31916,0.2782 3.81109,0.4142 0.74322,-1.34696 1.29451,-2.81871 1.61398,-4.38178 -1.18887,-0.89882 -2.25468,-1.68482 -3.08158,-2.24694 a 12.030001,12.030001 0 0 0 0.0483,-0.95998 12.030001,12.030001 0 0 0 -0.0163,-0.4617 c 0.84648,-0.53788 1.93802,-1.29118 3.15554,-2.15275 -0.25909,-1.57024 -0.74849,-3.05561 -1.43257,-4.42306 -1.47454,0.0868 -2.78954,0.1791 -3.7924,0.28653 a 12.030001,12.030001 0 0 0 -0.9296,-1.19356 c 0.31534,-0.99922 0.68157,-2.32307 1.0752,-3.80484 -1.12529,-0.98146 -2.39577,-1.80052 -3.77839,-2.42525 -1.05872,1.01246 -2.00865,1.93781 -2.73356,2.68917 a 12.030001,12.030001 0 0 0 -1.72686,-0.38694 c -0.4177,-1.01347 -0.98834,-2.28676 -1.62644,-3.67952 -0.13318,-0.003 -0.26535,-0.0108 -0.3994,-0.0108 z m -0.10978,10.08091 a 5.4811247,5.4811247 0 0 1 5.48112,5.48113 5.4811247,5.4811247 0 0 1 -5.48112,5.48113 5.4811247,5.4811247 0 0 1 -5.48112,-5.48113 5.4811247,5.4811247 0 0 1 5.48112,-5.48113 z"
       id="path821-3"
       inkscape:connector-curvature="0" />
  </g>
</svg>
