<?xml version="1.0" encoding="UTF-8" standalone="no"?>
<svg
   xmlns:dc="http://purl.org/dc/elements/1.1/"
   xmlns:cc="http://creativecommons.org/ns#"
   xmlns:rdf="http://www.w3.org/1999/02/22-rdf-syntax-ns#"
   xmlns:svg="http://www.w3.org/2000/svg"
   xmlns="http://www.w3.org/2000/svg"
   width="60px"
   height="60px"
   viewBox="0 0 60 60"
   version="1.1"
   id="svg2">
  <metadata
     id="metadata22">
    <rdf:RDF>
      <cc:Work
         rdf:about="">
        <dc:format>image/svg+xml</dc:format>
        <dc:type
           rdf:resource="http://purl.org/dc/dcmitype/StillImage" />
        <dc:title>el-vm</dc:title>
      </cc:Work>
    </rdf:RDF>
  </metadata>
  <defs
     id="defs20" />
  <!-- Generator: Sketch 41.2 (35397) - http://www.bohemiancoding.com/sketch -->
  <title
     id="title4">el-vm</title>
  <desc
     id="desc6">Created with Sketch.</desc>
  <g
     transform="matrix(1.6269419,0,0,1.6269419,0.71805564,1.5302682)"
     id="g10"
     style="opacity:1;stroke:#acffff;stroke-opacity:1">
    <path
       style="fill:#333a4d;fill-opacity:1;stroke:none;stroke-opacity:1"
       d="M 14.402344,23.498047 C 13.077344,23.498047 12,24.557375 12,25.859375 v 16.357422 c 0,1.302 1.077344,2.359375 2.402344,2.359375 h 9.033203 l -0.238281,2.21875 c -0.019,0.179 0.03911,0.360187 0.162109,0.492187 0.122,0.135 0.297469,0.210938 0.480469,0.210938 h 6.83789 c 0.183,0 0.356516,-0.07594 0.478516,-0.210938 0.123,-0.132 0.184062,-0.313187 0.164062,-0.492187 l -0.238281,-2.21875 h 8.515625 c 1.325,0 2.402344,-1.057375 2.402344,-2.359375 v -11.21875 h -1.292969 v 9.261719 H 13.292969 V 25.859375 c 0,-0.602 0.497375,-1.091797 1.109375,-1.091797 h 10.201172 c 0.08287,-0.440916 0.218399,-0.865456 0.412109,-1.269531 z m -1.109375,18.03125 h 27.414062 v 0.6875 c 0,0.602 -0.497375,1.089844 -1.109375,1.089844 H 14.402344 c -0.612,0 -1.109375,-0.487844 -1.109375,-1.089844 z m 11.443359,3.046875 h 5.042969 l 0.179687,1.652344 h -5.40039 z"
       transform="translate(-12,-13)"
       id="path12" />
    <path
       class="icon-drawing2"
       d="m 17.5993,17.9978 c -1.415,0 -2.592,-0.5 -3.598,-1.53 -1.01,-1.033 -1.501,-2.242 -1.501,-3.697 0,-1.023 0.272,-1.971 0.809,-2.819 0.539,-0.848 1.255,-1.49 2.13,-1.906 l 0.308,-0.147 -0.024,-0.34 c -0.016,-0.223 -0.023,-0.394 -0.023,-0.514 0,-1.687 0.566,-3.086 1.732,-4.278 1.163,-1.189 2.526,-1.767 4.167,-1.767 1.205,0 2.313,0.349 3.293,1.035 0.986,0.69 1.715,1.605 2.167,2.718 l 0.269,0.662 0.53,-0.48 c 0.492,-0.446 1.062,-0.663 1.74,-0.663 0.749,0 1.372,0.265 1.904,0.809 0.535,0.547 0.795,1.189 0.795,1.964 0,0.547 -0.143,1.036 -0.435,1.495 l -0.377,0.593 0.684,0.162 c 0.97,0.231 1.75,0.735 2.384,1.542 0.634,0.807 0.943,1.707 0.943,2.752 0,1.231 -0.413,2.252 -1.264,3.121 -0.847,0.867 -1.84,1.288 -3.035,1.288 z"
       id="path14"
       style="color:#000000;clip-rule:nonzero;display:inline;overflow:visible;visibility:visible;opacity:1;isolation:auto;mix-blend-mode:normal;color-interpolation:sRGB;color-interpolation-filters:linearRGB;solid-color:#000000;solid-opacity:1;fill:none;fill-opacity:1;fill-rule:nonzero;stroke:#333a40;stroke-width:1.2293002;stroke-linecap:butt;stroke-linejoin:miter;stroke-miterlimit:4;stroke-dasharray:none;stroke-dashoffset:0;stroke-opacity:1;color-rendering:auto;image-rendering:auto;shape-rendering:auto;text-rendering:auto;enable-background:accumulate" />
  </g>
</svg>
